<?xml version="1.0" encoding="UTF-8" standalone="no"?>
<!DOCTYPE svg PUBLIC "-//W3C//DTD SVG 1.1//EN" "http://www.w3.org/Graphics/SVG/1.1/DTD/svg11.dtd">
<svg width="100%" height="100%" viewBox="0 0 125 126" version="1.1" xmlns="http://www.w3.org/2000/svg" xmlns:xlink="http://www.w3.org/1999/xlink" xml:space="preserve" xmlns:serif="http://www.serif.com/" style="fill-rule:evenodd;clip-rule:evenodd;stroke-linejoin:round;stroke-miterlimit:1.41421;">
    <g transform="matrix(1,0,0,1,-150,0)">
        <g id="Artboard2" transform="matrix(0.625,0,0,0.625,-6.25,0.255895)">
            <rect x="250" y="0" width="200" height="200" style="fill:none;"/>
            <clipPath id="_clip1">
                <rect x="250" y="0" width="200" height="200"/>
            </clipPath>
            <g clip-path="url(#_clip1)">
                <g id="ground" transform="matrix(1,0,0,1,0,-0.409432)">
                    <path d="M450,50C450,22.404 427.596,0 400,0L300,0C272.404,0 250,22.404 250,50L250,150C250,177.596 272.404,200 300,200L400,200C427.596,200 450,177.596 450,150L450,50Z" style="fill:rgb(24,134,31);"/>
                </g>
                <g id="sky" transform="matrix(1,0,0,1,0,-0.409432)">
                    <path d="M400,0C427.596,0 450,22.404 450,50L450,141.157L250,141.157L250,50C250,22.404 272.404,0 300,0L400,0Z" style="fill:rgb(167,188,232);"/>
                </g>
                <g transform="matrix(1,0,0,1,0,-9.40943)">
                    <g transform="matrix(1.14569,0,0,1,-56.9232,0)">
                        <g transform="matrix(0.872837,0,0,1,49.6846,9)">
                            <path d="M390.716,149.541L250,149.541L250,107.972L303.577,41.613L390.716,149.541Z" style="fill:rgb(103,96,86);"/>
                        </g>
                        <path d="M330.533,72.032L324.678,81.23L320.108,74.05L313.819,83.929L313.755,83.929L307.382,73.917L301.009,83.929L300.853,83.929L296.621,74.948L314.658,50.613L330.533,72.032Z" style="fill:white;"/>
                    </g>
                    <g transform="matrix(1.15868,0,0,1,-49.8265,0)">
                        <g transform="matrix(0.863053,0,0,1,43.0029,9)">
                            <path d="M450,81.363L450,149.541L314.01,149.541L402.137,0.318L450,81.363Z" style="fill:rgb(103,96,86);"/>
                        </g>
                        <g transform="matrix(-1.03487,0,0,1.50385,715.445,-67.7971)">
                            <path d="M330.533,72.032L324.678,81.23L320.108,74.05L313.819,83.929L313.755,83.929L307.382,73.917L301.009,83.929L300.853,83.929L296.621,74.948L314.658,50.613L330.533,72.032Z" style="fill:white;"/>
                        </g>
                    </g>
                </g>
                <g transform="matrix(0.343442,0,0,0.319903,214.412,104.182)">
                    <g transform="matrix(10,-4.92946e-17,9.96969e-17,10,-1080,-2160)">
                        <path d="M143.84,219.189C144.748,219.236 145.523,218.562 145.572,217.682C145.62,216.802 144.926,216.05 144.02,216.002C143.112,215.954 142.337,216.628 142.288,217.509C142.239,218.389 142.934,219.141 143.84,219.189Z"/>
                    </g>
                    <g transform="matrix(10,-4.92946e-17,9.96969e-17,10,-1080,-2160)">
                        <path d="M146.895,230.587C146.838,230.32 146.721,230.068 146.551,229.85L144.33,226.941L144.333,221.054C144.338,220.906 144.481,220.776 144.333,220.744L142.22,220.155C141.984,220.102 141.604,220.061 141.395,220.181L137.949,222.304C137.237,222.739 137.041,223.084 137,223.839L137,226.107C137,226.566 137.193,226.918 137.667,226.918C138.14,226.918 138.333,226.542 138.333,226.107L138.333,224C138.333,223.63 139.104,223.288 139.396,223.123L140.833,222.195L140.773,225.486C140.752,225.809 140.863,226.127 141.081,226.371L144.562,230.415C144.666,230.531 144.718,230.722 144.752,230.872L145.8,235.259C145.897,235.691 146.292,236 146.749,236L146.751,236C147.367,236 147.828,235.452 147.703,234.867L146.895,230.587Z" style="fill:rgb(61,50,0);"/>
                    </g>
                    <g transform="matrix(10,-4.92946e-17,9.96969e-17,10,-1080,-2156.87)">
                        <path d="M148.776,224.933C148.77,224.928 145.526,221.764 145.526,221.764L145.456,223.787L147.688,226.01C148.418,226.682 149.463,225.582 148.776,224.933Z" style="fill:rgb(188,151,15);"/>
                    </g>
                    <g transform="matrix(10,-4.92946e-17,9.96969e-17,10,-1080,-2147.5)">
                        <path d="M140.573,230.448C140.569,230.537 140.546,230.757 140.474,230.813L137.599,233.017C137.118,233.408 137.079,233.938 137.383,234.377C137.729,234.877 138.447,234.975 138.923,234.588L142.123,232.054C142.38,231.845 142.54,231.545 142.57,231.221L142.64,229.805L140.778,227.695L140.573,230.448Z" style="fill:rgb(188,151,15);"/>
                    </g>
                </g>
            </g>
        </g>
    </g>
</svg>
