<?xml version="1.0" encoding="UTF-8" standalone="no"?>
<!DOCTYPE svg PUBLIC "-//W3C//DTD SVG 1.1//EN" "http://www.w3.org/Graphics/SVG/1.1/DTD/svg11.dtd">
<svg width="100%" height="100%" viewBox="0 0 950 200" version="1.1" xmlns="http://www.w3.org/2000/svg" xmlns:xlink="http://www.w3.org/1999/xlink" xml:space="preserve" xmlns:serif="http://www.serif.com/" style="fill-rule:evenodd;clip-rule:evenodd;stroke-linejoin:round;stroke-miterlimit:1.41421;">
    <rect id="Artboard1" x="0" y="0" width="200" height="200" style="fill:none;"/>
    <clipPath id="_clip1">
        <rect id="Artboard11" serif:id="Artboard1" x="0" y="0" width="200" height="200"/>
    </clipPath>
    <g clip-path="url(#_clip1)">
        <g transform="matrix(1.0101,-0,0,-1.0101,0,200)">
            <path d="M198,49.5C198,22.18 175.82,0 148.5,0L49.5,0C22.18,0 0,22.18 0,49.5L0,148.5C0,175.82 22.18,198 49.5,198L148.5,198C175.82,198 198,175.82 198,148.5L198,49.5Z" style="fill:url(#_Linear2);"/>
        </g>
        <g id="Person" transform="matrix(2.82,0,0,2.82,-1352.3,-478.1)">
            <path d="M515,180C501.2,180 490,191.2 490,205C490,218.8 501.2,230 515,230C528.8,230 540,218.8 540,205C540,191.2 528.8,180 515,180ZM530.269,222.199C535.012,217.985 538,211.841 538,205C538,192.3 527.7,182 515,182C502.3,182 492,192.3 492,205C492,211.841 494.988,217.985 499.731,222.199C502.446,222.115 506.159,222.8 509.516,219.025C510.498,217.921 510.292,214.903 510,214C508.819,213.419 508.056,211.685 508,208C506.902,208.017 506.198,207.629 506,207C505.29,204.738 504.383,202.338 506,200C503.819,191.728 509,187 515,187C521,187 526.181,191.728 524,200C525.617,202.338 524.71,204.738 524,207C523.802,207.629 523.098,208.017 522,208C521.944,211.685 521.181,213.419 520,214C519.708,214.903 519.502,217.921 520.484,219.025C523.841,222.8 527.554,222.115 530.269,222.199Z" style="fill:rgb(141,119,38);"/>
        </g>
    </g>
    <rect id="Artboard2" x="250" y="0" width="200" height="200" style="fill:none;"/>
    <clipPath id="_clip3">
        <rect id="Artboard21" serif:id="Artboard2" x="250" y="0" width="200" height="200"/>
    </clipPath>
    <g clip-path="url(#_clip3)">
        <path d="M450,50C450,22.404 427.596,0 400,0L300,0C272.404,0 250,22.404 250,50L250,150C250,177.596 272.404,200 300,200L400,200C427.596,200 450,177.596 450,150L450,50Z" style="fill:url(#_Linear4);"/>
        <g>
            <g transform="matrix(1.14569,0,0,1,-56.9232,0)">
                <g transform="matrix(1,0,0,1,-11.3999,-0.933328)">
                    <path d="M326.058,51.547L402.116,159.474L250,159.474L326.058,51.547Z" style="fill:url(#_Linear5);"/>
                </g>
                <path d="M330.533,72.032L324.678,81.23L320.108,74.05L313.819,83.929L313.755,83.929L307.382,73.917L301.009,83.929L300.853,83.929L296.621,74.948L314.658,50.613L330.533,72.032Z" style="fill:white;"/>
            </g>
            <g transform="matrix(1.15868,0,0,1,-49.8265,0)">
                <g transform="matrix(1,0,0,1.38262,64.0104,-61.9519)">
                    <path d="M326.058,51.547L402.116,159.474L250,159.474L326.058,51.547Z" style="fill:url(#_Linear6);"/>
                </g>
                <g transform="matrix(-1.03487,0,0,1.50385,715.445,-67.7971)">
                    <path d="M330.533,72.032L324.678,81.23L320.108,74.05L313.819,83.929L313.755,83.929L307.382,73.917L301.009,83.929L300.853,83.929L296.621,74.948L314.658,50.613L330.533,72.032Z" style="fill:white;"/>
                </g>
            </g>
        </g>
        <g transform="matrix(0.343442,0,0,0.319903,214.412,115.591)">
            <g transform="matrix(10,-4.92946e-17,9.96969e-17,10,-1080,-2160)">
                <path d="M143.84,219.189C144.748,219.236 145.523,218.562 145.572,217.682C145.62,216.802 144.926,216.05 144.02,216.002C143.112,215.954 142.337,216.628 142.288,217.509C142.239,218.389 142.934,219.141 143.84,219.189Z"/>
            </g>
            <g transform="matrix(10,-4.92946e-17,9.96969e-17,10,-1080,-2160)">
                <path d="M146.895,230.587C146.838,230.32 146.721,230.068 146.551,229.85L144.33,226.941L144.333,221.054C144.338,220.906 144.481,220.776 144.333,220.744L142.22,220.155C141.984,220.102 141.604,220.061 141.395,220.181L137.949,222.304C137.237,222.739 137.041,223.084 137,223.839L137,226.107C137,226.566 137.193,226.918 137.667,226.918C138.14,226.918 138.333,226.542 138.333,226.107L138.333,224C138.333,223.63 139.104,223.288 139.396,223.123L140.833,222.195L140.773,225.486C140.752,225.809 140.863,226.127 141.081,226.371L144.562,230.415C144.666,230.531 144.718,230.722 144.752,230.872L145.8,235.259C145.897,235.691 146.292,236 146.749,236L146.751,236C147.367,236 147.828,235.452 147.703,234.867L146.895,230.587Z"/>
            </g>
            <g transform="matrix(10,-4.92946e-17,9.96969e-17,10,-1080,-2160)">
                <path d="M148.776,224.933C148.77,224.928 145.526,221.764 145.526,221.764L145.456,223.787L147.688,226.01C148.418,226.682 149.463,225.582 148.776,224.933Z" style="fill:rgb(120,81,25);"/>
            </g>
            <g transform="matrix(10,-4.92946e-17,9.96969e-17,10,-1080,-2160)">
                <path d="M140.573,230.448C140.569,230.537 140.546,230.757 140.474,230.813L137.599,233.017C137.118,233.408 137.079,233.938 137.383,234.377C137.729,234.877 138.447,234.975 138.923,234.588L142.123,232.054C142.38,231.845 142.54,231.545 142.57,231.221L142.64,229.805L140.778,227.695L140.573,230.448Z" style="fill:rgb(120,81,25);"/>
            </g>
        </g>
    </g>
    <rect id="Artboard3" x="500" y="0" width="200" height="200" style="fill:none;"/>
    <clipPath id="_clip7">
        <rect id="Artboard31" serif:id="Artboard3" x="500" y="0" width="200" height="200"/>
    </clipPath>
    <g clip-path="url(#_clip7)">
        <path d="M699.704,50C699.704,22.404 677.3,0 649.704,0L549.704,0C522.108,0 499.704,22.404 499.704,50L499.704,150C499.704,177.596 522.108,200 549.704,200L649.704,200C677.3,200 699.704,177.596 699.704,150L699.704,50Z" style="fill:url(#_Linear8);"/>
        <g transform="matrix(1,0,0,1,18,-19.25)">
            <path d="M544,77C544,72.033 539.967,68 535,68C530.033,68 526,72.033 526,77L526,161.5C526,166.467 530.033,170.5 535,170.5C539.967,170.5 544,166.467 544,161.5L544,77Z" style="fill:url(#_Linear9);"/>
        </g>
        <g transform="matrix(1,0,0,0.726829,-2.05026,13.3256)">
            <path d="M544,80.383C544,73.548 539.967,68 535,68C530.033,68 526,73.548 526,80.383L526,158.117C526,164.952 530.033,170.5 535,170.5C539.967,170.5 544,164.952 544,158.117L544,80.383Z" style="fill:url(#_Linear10);"/>
        </g>
        <g transform="matrix(1,0,0,0.726829,134.209,13.3256)">
            <path d="M544,80.383C544,73.548 539.967,68 535,68C530.033,68 526,73.548 526,80.383L526,158.117C526,164.952 530.033,170.5 535,170.5C539.967,170.5 544,164.952 544,158.117L544,80.383Z" style="fill:url(#_Linear11);"/>
        </g>
        <g transform="matrix(1,0,0,1,113.837,-19.25)">
            <path d="M544,77C544,72.033 539.967,68 535,68C530.033,68 526,72.033 526,77L526,161.5C526,166.467 530.033,170.5 535,170.5C539.967,170.5 544,166.467 544,161.5L544,77Z" style="fill:url(#_Linear12);"/>
        </g>
        <g transform="matrix(0.780024,0,0,0.728705,132.269,32.9849)">
            <path d="M648.837,87.947C648.837,85.73 647.155,83.929 645.083,83.929L556.753,83.929C554.682,83.929 553,85.73 553,87.947L553,95.982C553,98.2 554.682,100 556.753,100L645.083,100C647.155,100 648.837,98.2 648.837,95.982L648.837,87.947Z" style="fill:url(#_Linear13);"/>
        </g>
    </g>
    <rect id="Artboard4" x="750" y="0" width="200" height="200" style="fill:none;"/>
    <clipPath id="_clip14">
        <rect id="Artboard41" serif:id="Artboard4" x="750" y="0" width="200" height="200"/>
    </clipPath>
    <g clip-path="url(#_clip14)">
        <path d="M950,50C950,22.404 927.596,0 900,0L800,0C772.404,0 750,22.404 750,50L750,150C750,177.596 772.404,200 800,200L900,200C927.596,200 950,177.596 950,150L950,50Z" style="fill:url(#_Linear15);"/>
        <g transform="matrix(1,0,0,1,-25.9646,30.1398)">
            <circle cx="912.982" cy="47.86" r="37.018" style="fill:rgb(226,216,0);"/>
        </g>
        <g transform="matrix(1.45588,0,0,2.15319,-370.196,-67.7793)">
            <path d="M797.329,100.359C792.957,100.006 781.293,98.175 777.538,92.378C774.701,87.998 779.236,81.789 783.248,79.253C788.755,75.772 797.7,75.647 802.199,77.921C801.63,77.633 794.569,49.807 835.014,50.512C844.069,50.67 859.295,51.547 863.175,63.46C863.811,65.414 864.611,67.603 865.087,69.737C865.278,70.595 864.284,72.373 865.163,72.374C867.654,72.375 869.42,68.801 882.767,70.119C885.95,70.433 888.879,72.18 891.311,73.997C893.441,75.589 905.232,95.397 877.013,101.924" style="fill:url(#_Linear16);"/>
        </g>
    </g>
    <defs>
        <linearGradient id="_Linear2" x1="0" y1="0" x2="1" y2="0" gradientUnits="userSpaceOnUse" gradientTransform="matrix(2.40661e-14,393.03,-393.03,2.40661e-14,99,-108.9)"><stop offset="0" style="stop-color:rgb(189,189,189);stop-opacity:1"/><stop offset="1" style="stop-color:rgb(239,218,187);stop-opacity:1"/></linearGradient>
        <linearGradient id="_Linear4" x1="0" y1="0" x2="1" y2="0" gradientUnits="userSpaceOnUse" gradientTransform="matrix(2.01299e-14,328.745,-328.745,2.01299e-14,350,-83.1598)"><stop offset="0" style="stop-color:rgb(167,188,232);stop-opacity:1"/><stop offset="0.47" style="stop-color:rgb(127,173,176);stop-opacity:1"/><stop offset="1" style="stop-color:rgb(24,134,31);stop-opacity:1"/></linearGradient>
        <linearGradient id="_Linear5" x1="0" y1="0" x2="1" y2="0" gradientUnits="userSpaceOnUse" gradientTransform="matrix(1.60281e-14,261.758,-261.758,1.60281e-14,325.41,-22.25)"><stop offset="0" style="stop-color:rgb(103,96,86);stop-opacity:1"/><stop offset="1" style="stop-color:rgb(161,154,143);stop-opacity:1"/></linearGradient>
        <linearGradient id="_Linear6" x1="0" y1="0" x2="1" y2="0" gradientUnits="userSpaceOnUse" gradientTransform="matrix(1.77188e-14,209.29,-289.37,1.28153e-14,326.058,-2.24658)"><stop offset="0" style="stop-color:rgb(103,96,86);stop-opacity:1"/><stop offset="1" style="stop-color:rgb(161,154,143);stop-opacity:1"/></linearGradient>
        <linearGradient id="_Linear8" x1="0" y1="0" x2="1" y2="0" gradientUnits="userSpaceOnUse" gradientTransform="matrix(1.64715e-14,269,-269,1.64715e-14,600,-45)"><stop offset="0" style="stop-color:rgb(202,202,202);stop-opacity:1"/><stop offset="0.5" style="stop-color:rgb(176,176,176);stop-opacity:1"/><stop offset="1" style="stop-color:rgb(100,100,100);stop-opacity:1"/></linearGradient>
        <linearGradient id="_Linear9" x1="0" y1="0" x2="1" y2="0" gradientUnits="userSpaceOnUse" gradientTransform="matrix(1.22465e-14,200,-200,1.22465e-14,583,19.25)"><stop offset="0" style="stop-color:rgb(108,108,108);stop-opacity:1"/><stop offset="0.5" style="stop-color:rgb(81,81,81);stop-opacity:1"/><stop offset="1" style="stop-color:black;stop-opacity:1"/></linearGradient>
        <linearGradient id="_Linear10" x1="0" y1="0" x2="1" y2="0" gradientUnits="userSpaceOnUse" gradientTransform="matrix(1.22465e-14,275.168,-200,1.68492e-14,603.05,-18.3339)"><stop offset="0" style="stop-color:rgb(108,108,108);stop-opacity:1"/><stop offset="0.5" style="stop-color:rgb(81,81,81);stop-opacity:1"/><stop offset="1" style="stop-color:black;stop-opacity:1"/></linearGradient>
        <linearGradient id="_Linear11" x1="0" y1="0" x2="1" y2="0" gradientUnits="userSpaceOnUse" gradientTransform="matrix(1.22465e-14,275.168,-200,1.68492e-14,466.791,-18.3339)"><stop offset="0" style="stop-color:rgb(108,108,108);stop-opacity:1"/><stop offset="0.5" style="stop-color:rgb(81,81,81);stop-opacity:1"/><stop offset="1" style="stop-color:black;stop-opacity:1"/></linearGradient>
        <linearGradient id="_Linear12" x1="0" y1="0" x2="1" y2="0" gradientUnits="userSpaceOnUse" gradientTransform="matrix(1.22465e-14,200,-200,1.22465e-14,487.163,19.25)"><stop offset="0" style="stop-color:rgb(108,108,108);stop-opacity:1"/><stop offset="0.5" style="stop-color:rgb(81,81,81);stop-opacity:1"/><stop offset="1" style="stop-color:black;stop-opacity:1"/></linearGradient>
        <linearGradient id="_Linear13" x1="0" y1="0" x2="1" y2="0" gradientUnits="userSpaceOnUse" gradientTransform="matrix(1.57001e-14,274.46,-256.402,1.68058e-14,600.918,-45.2651)"><stop offset="0" style="stop-color:rgb(108,108,108);stop-opacity:1"/><stop offset="0.5" style="stop-color:rgb(81,81,81);stop-opacity:1"/><stop offset="1" style="stop-color:black;stop-opacity:1"/></linearGradient>
        <linearGradient id="_Linear15" x1="0" y1="0" x2="1" y2="0" gradientUnits="userSpaceOnUse" gradientTransform="matrix(1.73423e-14,283.221,-283.221,1.73423e-14,850,-45.4448)"><stop offset="0" style="stop-color:rgb(154,255,242);stop-opacity:1"/><stop offset="1" style="stop-color:rgb(103,87,210);stop-opacity:1"/></linearGradient>
        <linearGradient id="_Linear16" x1="0" y1="0" x2="1" y2="0" gradientUnits="userSpaceOnUse" gradientTransform="matrix(8.41173e-15,92.8853,-137.374,5.68759e-15,838.116,31.4785)"><stop offset="0" style="stop-color:white;stop-opacity:0.894118"/><stop offset="0.59" style="stop-color:rgb(247,242,224);stop-opacity:0.894118"/><stop offset="0.81" style="stop-color:rgb(229,213,156);stop-opacity:0.894118"/><stop offset="1" style="stop-color:rgb(210,183,87);stop-opacity:0.894118"/></linearGradient>
    </defs>
</svg>
