<?xml version="1.0" encoding="UTF-8" standalone="no"?>
<!DOCTYPE svg PUBLIC "-//W3C//DTD SVG 1.1//EN" "http://www.w3.org/Graphics/SVG/1.1/DTD/svg11.dtd">
<svg width="100%" height="100%" viewBox="0 0 125 126" version="1.1" xmlns="http://www.w3.org/2000/svg" xmlns:xlink="http://www.w3.org/1999/xlink" xml:space="preserve" xmlns:serif="http://www.serif.com/" style="fill-rule:evenodd;clip-rule:evenodd;stroke-linejoin:round;stroke-miterlimit:1.41421;">
    <g transform="matrix(1,0,0,1,-300,0)">
        <g id="Artboard3" transform="matrix(0.625,0,0,0.625,-12.5,0.255895)">
            <rect x="500" y="0" width="200" height="200" style="fill:none;"/>
            <clipPath id="_clip1">
                <rect x="500" y="0" width="200" height="200"/>
            </clipPath>
            <g clip-path="url(#_clip1)">
                <g transform="matrix(1,0,0,1,-0.177566,0)">
                    <path d="M699.704,50C699.704,22.404 677.3,0 649.704,0L549.704,0C522.108,0 499.704,22.404 499.704,50L499.704,150C499.704,177.596 522.108,200 549.704,200L649.704,200C677.3,200 699.704,177.596 699.704,150L699.704,50Z" style="fill:rgb(202,202,202);"/>
                </g>
                <g transform="matrix(1,0,0,1,17.8224,-19.25)">
                    <path d="M544,77C544,72.033 539.967,68 535,68C530.033,68 526,72.033 526,77L526,161.5C526,166.467 530.033,170.5 535,170.5C539.967,170.5 544,166.467 544,161.5L544,77Z" style="fill:rgb(108,108,108);"/>
                </g>
                <g transform="matrix(1,0,0,0.726829,-2.22783,13.3256)">
                    <path d="M544,80.383C544,73.548 539.967,68 535,68C530.033,68 526,73.548 526,80.383L526,158.117C526,164.952 530.033,170.5 535,170.5C539.967,170.5 544,164.952 544,158.117L544,80.383Z" style="fill:rgb(108,108,108);"/>
                </g>
                <g transform="matrix(1,0,0,0.726829,134.031,13.3256)">
                    <path d="M544,80.383C544,73.548 539.967,68 535,68C530.033,68 526,73.548 526,80.383L526,158.117C526,164.952 530.033,170.5 535,170.5C539.967,170.5 544,164.952 544,158.117L544,80.383Z" style="fill:rgb(108,108,108);"/>
                </g>
                <g transform="matrix(1,0,0,1,113.659,-19.25)">
                    <path d="M544,77C544,72.033 539.967,68 535,68C530.033,68 526,72.033 526,77L526,161.5C526,166.467 530.033,170.5 535,170.5C539.967,170.5 544,166.467 544,161.5L544,77Z" style="fill:rgb(108,108,108);"/>
                </g>
                <g transform="matrix(0.780024,0,0,0.728705,132.091,32.9849)">
                    <path d="M648.837,87.947C648.837,85.73 647.155,83.929 645.083,83.929L556.753,83.929C554.682,83.929 553,85.73 553,87.947L553,95.982C553,98.2 554.682,100 556.753,100L645.083,100C647.155,100 648.837,98.2 648.837,95.982L648.837,87.947Z" style="fill:rgb(108,108,108);"/>
                </g>
            </g>
        </g>
    </g>
</svg>
